# xmcd
#
# Track frame offsets:
#	150
#	18180
#	33741
#	52694
#	67138
#	85067
#	106238
#	124374
#	142568
#	155787
#	178881
#	195910
#
# Disc length: 2861 seconds
#
# Revision: 0
# Processed by: cddbd v1.5.1PL0 Copyright (c) Steve Scherf et al.
# Submitted via: dBpowerAMP V4.0
#
DISCID=9a0b2b0c
DTITLE=Daphné - L'Emeraude
DYEAR=2005
DGENRE=Blues
TTITLE0=Un Homme sous Influence
TTITLE1=Ton Coeur
TTITLE2=L'Insoumise
TTITLE3=Théo Soleil
TTITLE4=L'Ile Voisine
TTITLE5=Le Reveil
TTITLE6=Anna
TTITLE7=Il Viaggio
TTITLE8=La Danse au loup
TTITLE9=Trafalgar Square
TTITLE10=La Nuit des fous
TTITLE11=Sagamore
EXTD=\n
EXTT0=
EXTT1=
EXTT2=
EXTT3=
EXTT4=
EXTT5=
EXTT6=
EXTT7=
EXTT8=
EXTT9=
EXTT10=
EXTT11=
PLAYORDER=
